<svg width="470" height="300" fill="none" xmlns="http://www.w3.org/2000/svg" viewBox= "0 -50 470 300">
  <!-- <link xmlns="http://www.w3.org/1999/xhtml" rel="stylesheet" href="animation-search.css" type="text/css"/> -->
  <g filter="url(#a)" class = "card tres">
    <g filter="url(#b)">
      <path d="M455 1H335c-5.523 0-10 4.47715-10 10v180c0 5.523 4.477 10 10 10h120c5.523 0 10-4.477 10-10V11c0-5.52285-4.477-10-10-10Z" fill="var(--primaryColorSub,#2A2A2A)" class = "transition"/>
      <path d="M455 .5H335c-5.799 0-10.5 4.70101-10.5 10.5v180c0 5.799 4.701 10.5 10.5 10.5h120c5.799 0 10.5-4.701 10.5-10.5V11c0-5.79899-4.701-10.5-10.5-10.5Z" stroke="#fff"/>
    </g>
    <path d="M428 .5h-.5v40h38V11c0-5.79899-4.701-10.5-10.5-10.5h-27Z" fill="var(--secondaryColorSub,#FB6A01)" stroke="#fff"/>
    <path d="M440.555 11.1c1.835 0 3.46.9464 4.436 2.4004v.0002l.007.0097c.005.0074.011.0169.02.0282.016.0225.038.0522.067.0868.056.0686.139.1597.246.2518.208.1788.552.3966 1.002.3966.451 0 .794-.2177 1.003-.3966.107-.092.19-.1831.246-.2517.028-.0346.051-.0644.067-.0869.008-.0113.015-.0208.02-.0282l.007-.0097v-.0003c0-.0004 0-.0008.001-.0012.975-1.4532 2.601-2.3991 4.434-2.3991 2.963 0 5.389 2.4742 5.389 5.5578 0 .7259-.139 1.4173-.385 2.0538l-.006.0152-.004.0156c-.788 2.5137-2.972 5.3084-5.28 7.5244-1.147 1.1012-2.307 2.0425-3.309 2.7188-.502.3384-.957.606-1.347.7939-.364.1759-.644.2683-.836.2976-.192-.0293-.471-.1217-.836-.2975-.39-.188-.845-.4556-1.347-.794-1.002-.6763-2.162-1.6176-3.309-2.7188-2.308-2.216-4.492-5.0107-5.279-7.5243l-.005-.0156-.006-.0152c-.246-.6372-.384-1.3281-.384-2.0539 0-3.0836 2.425-5.5578 5.388-5.5578Z" fill="var(--primaryColorSub,#2A2A2A)" stroke="#fff" class = "transition"/>
    <path d="M325 167.5h-.5V191c0 5.799 4.701 10.5 10.5 10.5h120c5.799 0 10.5-4.701 10.5-10.5v-23.5H325Z" fill="var(--secondaryColorSub,#FB6A01)" stroke="#fff"/>
  </g>
  <g filter="url(#c)" class = "card uno">
    <g filter="url(#d)">
      <path d="M135 1H15C9.47715 1 5 5.47715 5 11v180c0 5.523 4.47715 10 10 10h120c5.523 0 10-4.477 10-10V11c0-5.52285-4.477-10-10-10Z" fill="var(--primaryColorSub,#2A2A2A)" class = "transition"/>
      <path d="M135 .5H15C9.20101.5 4.5 5.20101 4.5 11v180c0 5.799 4.70101 10.5 10.5 10.5h120c5.799 0 10.5-4.701 10.5-10.5V11c0-5.79899-4.701-10.5-10.5-10.5Z" stroke="#fff"/>
    </g>
    <path d="M108 .5h-.5v40h38V11c0-5.79899-4.701-10.5-10.5-10.5h-27Z" fill="var(--secondaryColorSub,#FB6A01)" stroke="#fff"/>
    <path d="M120.555 11.1c1.835 0 3.46.9464 4.436 2.4004v.0002l.007.0097c.005.0074.011.0169.02.0282.016.0225.038.0522.067.0868.056.0686.139.1597.246.2518.208.1788.552.3966 1.002.3966.451 0 .794-.2177 1.003-.3966.107-.092.19-.1831.246-.2517.028-.0346.051-.0644.067-.0869.008-.0113.015-.0208.02-.0282l.006-.0097.001-.0003v-.0012c.976-1.4532 2.602-2.3991 4.435-2.3991 2.963 0 5.389 2.4742 5.389 5.5578 0 .7259-.139 1.4173-.385 2.0538l-.006.0152-.004.0156c-.788 2.5137-2.972 5.3084-5.28 7.5244-1.147 1.1012-2.307 2.0425-3.309 2.7188-.502.3384-.957.606-1.347.7939-.364.1759-.644.2683-.836.2976-.192-.0293-.471-.1217-.836-.2975-.39-.188-.845-.4556-1.347-.794-1.002-.6763-2.162-1.6176-3.309-2.7188-2.308-2.216-4.492-5.0107-5.279-7.5243l-.005-.0156-.006-.0152c-.246-.6372-.384-1.3281-.384-2.0539 0-3.0836 2.425-5.5578 5.388-5.5578Z" fill="var(--primaryColorSub,#2A2A2A)" stroke="#fff" class = "transition"/>
    <path d="M5 167.5h-.5V191c0 5.799 4.701 10.5 10.5 10.5h120c5.799 0 10.5-4.701 10.5-10.5v-23.5H5Z" fill="var(--secondaryColorSub,#FB6A01)" stroke="#fff"/>
  </g>
  <g filter="url(#e)" class = "card dos">
    <g filter="url(#f)">
      <path d="M295 1H175c-5.523 0-10 4.47715-10 10v180c0 5.523 4.477 10 10 10h120c5.523 0 10-4.477 10-10V11c0-5.52285-4.477-10-10-10Z" fill="var(--primaryColorSub,#2A2A2A)" class = "transition"/>
      <path d="M295 .5H175c-5.799 0-10.5 4.70101-10.5 10.5v180c0 5.799 4.701 10.5 10.5 10.5h120c5.799 0 10.5-4.701 10.5-10.5V11c0-5.79899-4.701-10.5-10.5-10.5Z" stroke="#fff"/>
    </g>
    <path d="M268 .5h-.5v40h38V11c0-5.79899-4.701-10.5-10.5-10.5h-27Z" fill="var(--secondaryColorSub,#FB6A01)" stroke="#fff"/>
    <path d="M280.555 11.1c1.835 0 3.46.9464 4.436 2.4004v.0002l.007.0097c.005.0074.011.0169.02.0282.016.0225.038.0522.067.0868.056.0686.139.1597.246.2518.208.1788.552.3966 1.002.3966.451 0 .794-.2177 1.003-.3966.107-.092.19-.1831.246-.2517.028-.0346.051-.0644.067-.0869.008-.0113.015-.0208.02-.0282l.007-.0097v-.0003c0-.0004 0-.0008.001-.0012.975-1.4532 2.601-2.3991 4.434-2.3991 2.963 0 5.389 2.4742 5.389 5.5578 0 .7259-.139 1.4173-.385 2.0538l-.006.0152-.004.0156c-.788 2.5137-2.972 5.3084-5.28 7.5244-1.147 1.1012-2.307 2.0425-3.309 2.7188-.502.3384-.957.606-1.347.7939-.364.1759-.644.2683-.836.2976-.192-.0293-.471-.1217-.836-.2975-.39-.188-.845-.4556-1.347-.794-1.002-.6763-2.162-1.6176-3.309-2.7188-2.308-2.216-4.492-5.0107-5.279-7.5243l-.005-.0156-.006-.0152c-.246-.6372-.384-1.3281-.384-2.0539 0-3.0836 2.425-5.5578 5.388-5.5578Z" fill="#fff" stroke="#fff"/>
    <path d="M165 167.5h-.5V191c0 5.799 4.701 10.5 10.5 10.5h120c5.799 0 10.5-4.701 10.5-10.5v-23.5H165Z" fill="var(--secondaryColorSub,#FB6A01)" stroke="#fff"/>
  </g>
  <g class = "glass">
    <path d="m258.681 118.295-8.925-8.904c-.045-.045-.098-.078-.145-.11-.802 1.233-1.761 2.405-2.843 3.487-1.081 1.082-2.255 2.041-3.501 2.845.044.046.077.1.122.144l8.907 8.924c1.763 1.76 4.626 1.758 6.383 0 1.759-1.76 1.76-4.624.002-6.386Zm-13.185-36.2157c-8.108-8.106-21.298-8.1061-29.407.0019-8.117 8.106-8.118 21.3058-.006 29.4148 8.112 8.105 21.305 8.105 29.413-.001 8.108-8.108 8.107-21.3087 0-29.4157Zm-25.591 25.5987c-6.003-6.003-6.001-15.7758.002-21.7728 6.003-6.002 15.77-6.002 21.771-.003 5.999 6 5.997 15.7618 0 21.7738-6.002 5.984-15.768 6.006-21.773.002Z" fill="var(--secondaryColorSub,#FB6A01)" stroke="#fff"/>
    <path d="M224.18 98.4642c-.441-1.812-2.257-4.3259-3.785-3.5249-1.211.618-.87 3.452-.299 5.1277 2.552 7.621 11.833 9.232 12.798 8.268.949-.948-6.966-2.7-8.714-9.8708Z" fill="#fff" stroke="#fff"/>
  </g>
  <defs>
    <filter id="a" x="320" y="0" width="150" height="210" filterUnits="userSpaceOnUse" color-interpolation-filters="sRGB">
      <feFlood flood-opacity="0" result="BackgroundImageFix"/>
      <feColorMatrix in="SourceAlpha" values="0 0 0 0 0 0 0 0 0 0 0 0 0 0 0 0 0 0 127 0" result="hardAlpha"/>
      <feOffset dy="4"/>
      <feGaussianBlur stdDeviation="2"/>
      <feComposite in2="hardAlpha" operator="out"/>
      <feColorMatrix values="0 0 0 0 0 0 0 0 0 0 0 0 0 0 0 0 0 0 0.25 0"/>
      <feBlend in2="BackgroundImageFix" result="effect1_dropShadow_0_1"/>
      <feBlend in="SourceGraphic" in2="effect1_dropShadow_0_1" result="shape"/>
    </filter>
    <filter id="b" x="324" y="0" width="142" height="206" filterUnits="userSpaceOnUse" color-interpolation-filters="sRGB">
      <feFlood flood-opacity="0" result="BackgroundImageFix"/>
      <feBlend in="SourceGraphic" in2="BackgroundImageFix" result="shape"/>
      <feColorMatrix in="SourceAlpha" values="0 0 0 0 0 0 0 0 0 0 0 0 0 0 0 0 0 0 127 0" result="hardAlpha"/>
      <feOffset dy="4"/>
      <feGaussianBlur stdDeviation="2"/>
      <feComposite in2="hardAlpha" operator="arithmetic" k2="-1" k3="1"/>
      <feColorMatrix values="0 0 0 0 0 0 0 0 0 0 0 0 0 0 0 0 0 0 0.25 0"/>
      <feBlend in2="shape" result="effect1_innerShadow_0_1"/>
    </filter>
    <filter id="c" x="0" y="0" width="150" height="210" filterUnits="userSpaceOnUse" color-interpolation-filters="sRGB">
      <feFlood flood-opacity="0" result="BackgroundImageFix"/>
      <feColorMatrix in="SourceAlpha" values="0 0 0 0 0 0 0 0 0 0 0 0 0 0 0 0 0 0 127 0" result="hardAlpha"/>
      <feOffset dy="4"/>
      <feGaussianBlur stdDeviation="2"/>
      <feComposite in2="hardAlpha" operator="out"/>
      <feColorMatrix values="0 0 0 0 0 0 0 0 0 0 0 0 0 0 0 0 0 0 0.25 0"/>
      <feBlend in2="BackgroundImageFix" result="effect1_dropShadow_0_1"/>
      <feBlend in="SourceGraphic" in2="effect1_dropShadow_0_1" result="shape"/>
    </filter>
    <filter id="d" x="4" y="0" width="142" height="206" filterUnits="userSpaceOnUse" color-interpolation-filters="sRGB">
      <feFlood flood-opacity="0" result="BackgroundImageFix"/>
      <feBlend in="SourceGraphic" in2="BackgroundImageFix" result="shape"/>
      <feColorMatrix in="SourceAlpha" values="0 0 0 0 0 0 0 0 0 0 0 0 0 0 0 0 0 0 127 0" result="hardAlpha"/>
      <feOffset dy="4"/>
      <feGaussianBlur stdDeviation="2"/>
      <feComposite in2="hardAlpha" operator="arithmetic" k2="-1" k3="1"/>
      <feColorMatrix values="0 0 0 0 0 0 0 0 0 0 0 0 0 0 0 0 0 0 0.25 0"/>
      <feBlend in2="shape" result="effect1_innerShadow_0_1"/>
    </filter>
    <filter id="e" x="160" y="0" width="150" height="210" filterUnits="userSpaceOnUse" color-interpolation-filters="sRGB">
      <feFlood flood-opacity="0" result="BackgroundImageFix"/>
      <feColorMatrix in="SourceAlpha" values="0 0 0 0 0 0 0 0 0 0 0 0 0 0 0 0 0 0 127 0" result="hardAlpha"/>
      <feOffset dy="4"/>
      <feGaussianBlur stdDeviation="2"/>
      <feComposite in2="hardAlpha" operator="out"/>
      <feColorMatrix values="0 0 0 0 0 0 0 0 0 0 0 0 0 0 0 0 0 0 0.25 0"/>
      <feBlend in2="BackgroundImageFix" result="effect1_dropShadow_0_1"/>
      <feBlend in="SourceGraphic" in2="effect1_dropShadow_0_1" result="shape"/>
    </filter>
    <filter id="f" x="164" y="0" width="142" height="206" filterUnits="userSpaceOnUse" color-interpolation-filters="sRGB">
      <feFlood flood-opacity="0" result="BackgroundImageFix"/>
      <feBlend in="SourceGraphic" in2="BackgroundImageFix" result="shape"/>
      <feColorMatrix in="SourceAlpha" values="0 0 0 0 0 0 0 0 0 0 0 0 0 0 0 0 0 0 127 0" result="hardAlpha"/>
      <feOffset dy="4"/>
      <feGaussianBlur stdDeviation="2"/>
      <feComposite in2="hardAlpha" operator="arithmetic" k2="-1" k3="1"/>
      <feColorMatrix values="0 0 0 0 0 0 0 0 0 0 0 0 0 0 0 0 0 0 0.25 0"/>
      <feBlend in2="shape" result="effect1_innerShadow_0_1"/>
    </filter>
  </defs>
  <script type="text/javascript">
  </script>
</svg>
