<svg width="470" height="300" fill="none" xmlns="http://www.w3.org/2000/svg" viewBox= "-62 -50 470 300">
  <!-- <link xmlns="http://www.w3.org/1999/xhtml" rel="stylesheet" href="animation-favorites.css" type="text/css"/> -->
  <g class = "movie">
    <path d="M235.23 45.5124h-15.749v6.517h-13.824v-6.517h-7.917V153.608h7.917v-2.75h13.825v2.75h106.282v-2.75h13.319v2.75h7.918V45.5124h-7.918v6.517h-13.319v-6.517H235.23ZM339.083 61.785v12.5124h-13.319V61.785h13.319Zm-13.319 34.7807V84.0533h13.319v12.5124h-13.319Zm13.319 9.7563v12.512h-13.319v-12.512h13.319ZM219.481 61.785v12.5124h-13.824V61.785h13.824Zm-13.824 34.7807V84.0533h13.824v12.5124h-13.824Zm13.824 9.7563v12.512h-13.824v-12.512h13.824Zm-13.824 34.78V128.59h13.824v12.512h-13.824Zm120.107 0V128.59h13.319v12.512h-13.319Z" fill="#FFE477"/>
    <path d="M284.499 54.1954h32.728v90.7296h-89.208V54.1954h57.153" fill="#FFF5CC"/>
    <path d="m296.984 88.2921-12.164 4.4184v-6.4312h-36.558v26.5617h36.558v-6.432l12.164 4.419V88.2921Z" fill="#CCA400"/>
    <path opacity=".27" d="M338.894 86.613v9.9527h-13.32V94.626c-43.734 23.561-100.391 30.063-128.024 32.202v26.78h7.918v-2.75h13.824v2.75h106.282v-2.75h13.32v2.75h7.917V80.8697c-2.552 2.0003-5.196 3.9125-7.917 5.7433Zm-119.602 54.489h-13.824V128.59h13.824v12.512Zm119.602 0h-13.32V128.59h13.32v12.512Zm0-22.268h-13.32v-12.512h13.32v12.512Z" fill="#CCA400"/>
  </g>
  <g class = "star">
    <path d="M37.6794 46H21.931v6.517H8.10684V46H.189758v108.095H8.10713v-2.749H21.9313v2.749H128.213v-2.749h13.32v2.749h7.918V46h-7.918v6.517h-13.319V46H37.6794ZM141.533 62.2726V74.785h-13.319V62.2726h13.319Zm-13.319 34.7807V84.5409h13.319v12.5124h-13.319Zm13.319 9.7557v12.513h-13.319v-12.513h13.319ZM21.931 62.2726V74.785H8.10684V62.2726H21.931ZM8.10684 97.0533V84.5409H21.931v12.5124H8.10684ZM21.931 106.809v12.513H8.10684v-12.513H21.931ZM8.10684 141.59v-12.512H21.931v12.512H8.10684Zm120.10716 0v-12.512h13.319v12.512h-13.319Z" fill="#FFE477"/>
    <path d="M86.9487 54.683h32.7273v90.729H30.4686V54.683h57.1529" fill="#FFF5CC"/>
    <path d="m81.7799 76 7.3009 16.2785 17.4782 2.0319-12.9661 12.0926 3.5013 17.535-15.3143-8.805-15.3146 8.805 3.501-17.535L57 94.3104l17.4784-2.0319L81.7799 76Z" fill="#CCA400"/>
    <path opacity=".27" d="M7.91736 87.1006v9.9527H21.2369v-1.9398C64.9713 118.674 121.629 125.177 149.261 127.315v26.78h-7.918v-2.749h-13.824v2.749H21.2369v-2.749H7.91736v2.749H-.00001268V81.3572C2.55203 83.3576 5.19631 85.2698 7.91736 87.1006ZM127.519 141.59h13.824v-12.512h-13.824v12.512Zm-119.60164 0H21.2369v-12.512H7.91736v12.512Zm0-22.268H21.2369v-12.513H7.91736v12.513Z" fill="#CCA400"/>
  </g>
  <g class = "bucket">
    <path d="M214.778 190h-80.346l-33.277-97.572h146.901L214.778 190Z" fill="#EF233C"/>
    <path d="M102.654 92.428h145.402L214.778 190" fill="#D90429"/>
    <path d="M202.187 190h-55.163l-22.485-97.572h100.133L202.187 190Z" fill="#fff"/>
    <path d="M126.638 92.428h98.034L202.187 190" fill="#E5E5E5"/>
    <path d="M185.398 190h-21.586l-8.694-97.572h38.974L185.398 190Z" fill="#D90429"/>
    <path d="M183.599 190h-19.787l-8.694-97.572" fill="#EF233C"/>
    <path d="M248.056 92.428H101.155l10.193-21.6487 126.814.3049 9.894 21.3438Z" fill="#D90429"/>
    <path d="M231.567 92.428H117.644l-6.596-21.3438h127.114l-6.595 21.3438Z" fill="#9A031E"/>
    <path d="M195.591 162.558h-41.972l-6.595-42.688h55.163l-6.596 42.688Z" fill="#EFD27F"/>
    <path d="M147.623 119.87h54.564l-5.996 40.858" fill="#E2B544"/>
    <path d="M156.617 130.237c1.325 0 2.399-1.092 2.399-2.439s-1.074-2.439-2.399-2.439c-1.324 0-2.398 1.092-2.398 2.439s1.074 2.439 2.398 2.439ZM165.611 130.237c1.325 0 2.399-1.092 2.399-2.439s-1.074-2.439-2.399-2.439c-1.324 0-2.398 1.092-2.398 2.439s1.074 2.439 2.398 2.439ZM174.605 130.237c1.325 0 2.399-1.092 2.399-2.439s-1.074-2.439-2.399-2.439c-1.324 0-2.398 1.092-2.398 2.439s1.074 2.439 2.398 2.439ZM183.599 130.237c1.325 0 2.399-1.092 2.399-2.439s-1.074-2.439-2.399-2.439c-1.324 0-2.398 1.092-2.398 2.439s1.074 2.439 2.398 2.439ZM192.593 130.237c1.325 0 2.398-1.092 2.398-2.439s-1.073-2.439-2.398-2.439c-1.324 0-2.398 1.092-2.398 2.439s1.074 2.439 2.398 2.439ZM160.815 156.765c0 1.219-.9 2.134-2.099 2.134-1.199 0-2.099-.915-2.099-2.134 0-1.22.9-2.135 2.099-2.135 1.199 0 2.099.915 2.099 2.135ZM166.81 158.899c1.16 0 2.099-.956 2.099-2.134 0-1.179-.939-2.135-2.099-2.135-1.159 0-2.098.956-2.098 2.135 0 1.178.939 2.134 2.098 2.134ZM174.605 158.899c1.159 0 2.099-.956 2.099-2.134 0-1.179-.94-2.135-2.099-2.135-1.159 0-2.098.956-2.098 2.135 0 1.178.939 2.134 2.098 2.134ZM182.4 158.899c1.159 0 2.099-.956 2.099-2.134 0-1.179-.94-2.135-2.099-2.135-1.159 0-2.099.956-2.099 2.135 0 1.178.94 2.134 2.099 2.134ZM190.495 158.899c1.159 0 2.098-.956 2.098-2.134 0-1.179-.939-2.135-2.098-2.135-1.159 0-2.099.956-2.099 2.135 0 1.178.94 2.134 2.099 2.134Z" fill="#9A031E"/>
  </g>
  <g class = "pop right">
    <path d="M149.722 68.34c-1.799-3.659-5.696-5.4884-9.594-4.2688-3.897 1.2197-6.295 4.8786-5.696 9.1474-3.897 1.5245-6.295 5.7933-5.096 10.0621 1.199 4.2688 5.696 7.013 10.193 5.4884 3.298-.9147 5.396-3.6589 5.696-7.013 2.099 2.4393 5.396 3.659 8.694 2.7442 4.197-1.2196 6.896-5.7933 5.397-10.367-1.2-4.5737-5.397-7.013-9.594-5.7933Z" fill="#EFD27F"/>
    <path d="M139.529 88.4642c3.298-.9147 5.396-3.659 5.696-7.013 2.099 2.4393 5.396 3.659 8.694 2.7442 4.197-1.2196 6.896-5.7933 5.397-10.367-1.2-4.2688-5.397-6.7081-9.594-5.7933" fill="#E2B544"/>
    <path d="M145.225 81.4512c2.099 2.4393 5.396 3.659 8.694 2.7442 4.197-1.2196 6.896-5.7933 5.397-10.367-1.2-4.2688-5.397-6.7081-9.594-5.7933-1.799-3.659-5.696-5.4884-9.594-4.2688" fill="#E2B544"/>
    <path d="M135.332 75.048c.599.6099.3 1.8295-.6 3.3541-.899 1.2196-2.398 2.1344-2.998 1.5245-.599-.6098-.3-1.8294.6-3.354.899-1.5246 2.398-2.1344 2.998-1.5246ZM139.529 65.5958c.599.3049.3 1.5245-.6 2.7442-.899 1.2196-2.098 1.8295-2.398 1.2196-.6-.3049-.3-1.5245.599-2.7442.9-.9147 1.799-1.5245 2.399-1.2196Z" fill="#FFF0B0"/>
  </g>
  <g class = "pop left">
    <path d="M221.374 9.18699c.3-3.96386-2.099-7.92772-5.996-8.842453-3.898-1.219649-7.795.914733-9.594 4.573683-4.197-.91474-8.394 1.82948-9.593 5.79338-1.199 4.5736 1.499 8.8424 5.696 10.0621 3.298.9147 6.595-.305 8.394-2.7443.6 3.0492 2.698 5.7934 5.996 6.7081 4.497 1.2197 8.994-1.5245 9.893-5.7933 1.799-3.9639-.599-8.2326-4.796-9.75721Z" fill="#EFD27F"/>
    <path d="M202.187 21.0786c3.297.9147 6.595-.3049 8.394-2.7442.6 3.0491 2.698 5.7933 5.996 6.708 4.497 1.2197 8.994-1.5245 9.893-5.7933 1.2-4.2688-1.199-8.5376-5.096-10.06212" fill="#E2B544"/>
    <path d="M210.881 18.3344c.599 3.0491 2.698 5.7933 5.996 6.708 4.497 1.2197 8.994-1.5245 9.893-5.7933 1.199-4.2688-1.199-8.5376-5.096-10.06211.299-3.96386-2.099-7.92772-5.996-8.842462" fill="#E2B544"/>
    <path d="M205.784 7.0526c.3.60983-.899 1.82948-2.398 2.4393-1.499.6098-2.998.6098-3.298-.30491-.3-.60982.899-1.82947 2.398-2.4393 1.499-.30491 2.998-.30491 3.298.30491ZM214.179 1.56419c.299.60982-.6 1.52456-2.099 2.13438-1.199.60983-2.698.30491-2.998-.30491-.3-.60982.6-1.52456 2.099-2.13439 1.499-.304909 2.698-.304909 2.998.30492Z" fill="#FFF0B0"/>
  </g>
  <g class = "pop right">
    <path d="M156.877 10.3872c-1.499-2.43928-4.497-3.35402-7.196-2.43928-2.698 1.21965-3.897 3.96388-3.297 6.70808-2.699 1.2196-3.898 4.5737-2.699 7.6228 1.2 3.0491 4.497 4.2688 7.495 3.0491 2.099-.9147 3.598-3.0491 3.598-5.4884 1.499 1.5246 4.197 2.1344 6.296 1.2197 2.998-1.2197 4.197-4.5737 2.998-7.6229-1.199-2.7442-4.497-3.96382-7.195-3.0491Z" fill="#EFD27F"/>
    <path d="M151.18 25.3279c2.099-.9147 3.598-3.0491 3.598-5.4884 1.499 1.5246 4.197 2.1344 6.296 1.2197 2.998-1.2197 4.197-4.5737 2.998-7.6229-1.199-2.7442-4.197-4.26873-7.195-3.354" fill="#E2B544"/>
    <path d="M154.478 20.1444c1.499 1.5246 4.197 2.1344 6.296 1.2197 2.998-1.2197 4.197-4.5737 2.998-7.6228-1.199-2.7443-4.197-4.26882-7.195-3.3541-1.199-2.43928-4.197-3.35402-6.896-2.43928" fill="#E2B544"/>
    <path d="M147.037 16.1153c-.426-.2593-1.254.3506-1.849 1.3622-.595 1.0117-.732 2.042-.305 2.3013.426.2593 1.254-.3506 1.849-1.3622s.731-2.0419.305-2.3013ZM149.382 9.47249c.299.30491.299 1.21961-.3 2.13441-.6.9147-1.199 1.5245-1.799 1.2196-.3-.3049-.3-1.2196.3-2.1344.599-.9147 1.499-1.52452 1.799-1.21961Z" fill="#FFF0B0"/>
  </g>
  <g class = "pop left">
    <path d="M235.464 58.2779c-.3-2.4393-2.098-4.5737-4.797-4.5737-2.398 0-4.796 1.5245-5.096 3.9638-2.698 0-4.797 2.1344-5.097 4.8786-.299 2.7442 2.099 5.1835 4.797 5.4885 2.099 0 3.897-.9148 4.797-2.7443.599 1.8295 2.398 3.3541 4.497 3.3541 2.698.3049 5.096-2.1344 5.396-4.8786 0-2.7442-1.799-5.1835-4.497-5.4884Z" fill="#EFD27F"/>
    <path d="M225.271 67.7302c2.099 0 3.897-.9148 4.797-2.7443.599 1.8295 2.398 3.3541 4.497 3.3541 2.698.3049 5.096-2.1344 5.396-4.8786.3-2.7442-1.799-4.8786-4.497-5.4884" fill="#E2B544"/>
    <path d="M230.068 64.9859c.599 1.8295 2.398 3.3541 4.497 3.3541 2.698.3049 5.096-2.1344 5.396-4.8786.3-2.7442-1.799-4.8786-4.497-5.4884-.3-2.4393-2.098-4.5737-4.797-4.5737" fill="#E2B544"/>
    <path d="M225.571 59.1926c.3.3049-.3 1.2197-1.199 1.8295-.9.6098-1.799.6098-2.099.3049-.3-.3049.3-1.2196 1.199-1.8295.9-.6098 1.799-.9147 2.099-.3049ZM230.068 54.6189c.3.3049-.3.9148-.9 1.5246-.599.6098-1.499.6098-1.798.3049-.3-.3049.299-.9147.899-1.5246.899-.6098 1.499-.6098 1.799-.3049Z" fill="#FFF0B0"/>
  </g>
  <g class = "pop right">
    <path d="M181.201 77.1825c-.3-2.4393-2.099-4.5737-4.797-4.5737-2.398 0-4.797 1.5245-5.097 3.9638-2.698 0-4.796 2.1344-5.096 4.8786-.3 2.7442 2.098 5.1835 4.797 5.4884 2.098 0 3.897-.9147 4.796-2.7442.6 1.8295 2.399 3.3541 4.497 3.3541 2.699.3049 5.097-2.1344 5.397-4.8786 0-2.7442-1.799-5.1835-4.497-5.4884Z" fill="#EFD27F"/>
    <path d="M171.008 86.6347c2.098 0 3.897-.9147 4.796-2.7442.6 1.8295 2.399 3.3541 4.497 3.3541 2.699.3049 5.097-2.1344 5.397-4.8786.3-2.7443-1.799-4.8786-4.497-5.4885" fill="#E2B544"/>
    <path d="M175.804 83.8905c.6 1.8295 2.399 3.3541 4.497 3.3541 2.699.3049 5.097-2.1344 5.397-4.8786.3-2.7443-1.799-4.8786-4.497-5.4885-.3-2.4393-2.099-4.5737-4.797-4.5737" fill="#E2B544"/>
    <path d="M171.329 78.0575c-.272-.4229-1.166-.3177-1.998.235-.832.5527-1.285 1.3435-1.014 1.7664.272.4229 1.166.3177 1.998-.2349.832-.5527 1.286-1.3436 1.014-1.7665ZM175.804 73.5235c.3.3049-.299.9147-.899 1.5246-.6.6098-1.499.6098-1.799.3049-.3-.3049.3-.9148.9-1.5246.899-.6098 1.798-.6098 1.798-.3049Z" fill="#FFF0B0"/>
  </g>
  <g class = "pop left">
    <path d="M224.971 38.7635c-.299-2.4393-2.098-4.5737-4.796-4.5737-2.399 0-4.797 1.5246-5.097 3.9639-2.698 0-4.797 2.1343-5.097 4.8786-.299 2.7442 2.099 5.1835 4.797 5.4884 2.099 0 3.898-.9148 4.797-2.7442.6 1.8294 2.398 3.354 4.497 3.354 2.698.3049 5.096-2.1344 5.396-4.8786.3-2.7442-1.798-5.1835-4.497-5.4884Z" fill="#EFD27F"/>
    <path d="M215.078 48.2158c2.099 0 3.897-.9148 4.797-2.7442.599 1.8294 2.398 3.354 4.497 3.354 2.698.3049 5.096-2.1344 5.396-4.8786.3-2.7442-1.799-4.8786-4.497-5.4884" fill="#E2B544"/>
    <path d="M219.875 45.4716c.599 1.8294 2.398 3.354 4.497 3.354 2.698.3049 5.096-2.1344 5.396-4.8786.3-2.7442-1.799-4.8786-4.497-5.4884-.3-2.4393-2.098-4.5737-4.797-4.5737" fill="#E2B544"/>
    <path d="M215.378 39.6782c.3.3049-.3 1.2197-1.199 1.8295-.9.6098-1.799.6098-2.099.3049-.3-.3049.3-1.2196 1.199-1.8295.9-.6098 1.799-.9147 2.099-.3049ZM219.575 35.1045c.3.3049-.3.9148-.899 1.5246-.6.6098-1.499.6098-1.799.3049-.3-.3049.3-.9147.899-1.5246.9-.6098 1.799-.6098 1.799-.3049Z" fill="#FFF0B0"/>
  </g>
  <g class = "pop right">
    <path d="M166.81 32.9701c-.299-1.5245-1.499-3.0491-2.997-3.0491-1.799 0-2.998.9148-3.298 2.7442-1.799 0-3.298 1.5246-3.298 3.0492 0 1.8294 1.199 3.354 2.998 3.6589 1.499 0 2.698-.6098 3.298-1.8295.3 1.2197 1.499 2.1344 2.998 2.1344 1.798 0 3.297-1.2196 3.597-3.0491-.3-1.8295-1.799-3.354-3.298-3.659Z" fill="#EFD27F"/>
    <path d="M159.915 39.3733c1.499 0 2.698-.6098 3.298-1.8295.3 1.2197 1.499 2.1344 2.998 2.1344 1.799 0 3.298-1.2196 3.597-3.0491 0-1.8295-1.199-3.354-2.998-3.6589" fill="#E2B544"/>
    <path d="M163.213 37.5438c.3 1.2197 1.499 2.1344 2.998 2.1344 1.799 0 3.298-1.2196 3.597-3.0491 0-1.8295-1.199-3.354-2.998-3.659-.299-1.5245-1.498-3.0491-2.997-3.0491" fill="#E2B544"/>
    <path d="M160.215 33.58c.3.3049-.3.9147-.6 1.2196-.599.3049-1.199.6098-1.199.3049-.3-.3049 0-.9147.6-1.2196.3-.6098.899-.6098 1.199-.3049ZM163.213 30.5309c.3.3049 0 .6098-.6.9147-.599.3049-.899.3049-1.199.3049 0-.3049 0-.6098.6-.9147.599-.3049.899-.6099 1.199-.3049Z" fill="#FFF0B0"/>
  </g>
  <g class = "pop left">
    <path d="M205.185 52.7894c-.3-1.5245-1.499-3.0491-2.998-3.0491s-2.998.9148-3.298 2.7442c-1.799 0-3.298 1.5246-3.298 3.0492 0 1.8294 1.199 3.354 2.998 3.6589 1.499 0 2.698-.6098 3.298-1.8295.3 1.2197 1.499 2.1344 2.998 2.1344 1.799 0 3.298-1.2196 3.597-3.0491-.299-2.1344-1.499-3.659-3.297-3.659Z" fill="#EFD27F"/>
    <path d="M198.589 59.1926c1.499 0 2.698-.6098 3.298-1.8295.3 1.2197 1.499 2.1344 2.998 2.1344 1.799 0 3.298-1.2196 3.597-3.0491 0-1.8295-1.199-3.354-2.998-3.659" fill="#E2B544"/>
    <path d="M201.587 57.0582c.3 1.2197 1.499 2.1344 2.998 2.1344 1.799 0 3.298-1.2196 3.598-3.0491 0-1.8295-1.2-3.3541-2.998-3.659-.3-1.5245-1.499-3.0491-2.998-3.0491" fill="#E2B544"/>
    <path d="M198.589 53.0944c.3.3049-.3.9147-.6 1.2196-.599.3049-1.199.6098-1.199.3049-.3-.3049.3-.9147.6-1.2196.599-.3049 1.199-.3049 1.199-.3049ZM201.587 50.3502c.3.3049 0 .6098-.6.9147-.599.3049-.899.3049-1.199.3049 0-.3049 0-.6098.6-.9147.599-.6099 1.199-.6099 1.199-.3049Z" fill="#FFF0B0"/>
  </g>
  <g class = "pop right">
    <path d="M119.961 53.8378c-1.499-2.4393-4.497-3.659-6.895-2.4393-2.698 1.2196-3.897 3.9638-3.298 6.708-2.698 1.2197-3.897 4.5737-2.698 7.6228 1.199 3.0492 4.497 4.2688 7.495 3.0492 2.099-.9148 3.598-3.0492 3.598-5.4885 1.499 1.5246 3.897 2.1344 6.295 1.2197 2.998-1.2197 4.198-4.5737 2.998-7.6228-1.499-2.7442-4.497-3.9639-7.495-3.0491Z" fill="#EFD27F"/>
    <path d="M114.265 68.7785c2.099-.9148 3.598-3.0492 3.598-5.4885 1.499 1.5246 3.897 2.1344 6.296 1.2197 2.998-1.2197 4.197-4.5737 2.998-7.6228-1.2-2.7442-4.198-4.2688-7.196-3.354" fill="#E2B544"/>
    <path d="M117.863 63.5949c1.499 1.5246 3.897 2.1344 6.296 1.2197 2.998-1.2197 4.197-4.5737 2.998-7.6228-1.2-2.7442-4.198-4.2688-7.196-3.354-1.499-2.4393-4.497-3.659-6.895-2.4393" fill="#E2B544"/>
    <path d="M110.368 59.6311c.599.3049.3 1.2196-.3 2.4393-.6.9147-1.499 1.5245-1.799 1.2196-.599-.3049-.299-1.2196.3-2.4393.3-.9147 1.199-1.5245 1.799-1.2196ZM112.766 52.923c.3.3049.3 1.2197-.3 2.1344-.599.9148-1.199 1.5246-1.798 1.2197-.3-.305-.3-1.2197.299-2.1344.6-.9148 1.499-1.5246 1.799-1.2197Z" fill="#FFF0B0"/>
  </g>
  <g class = "pop left">
    <path d="M178.203 50.3502c-.9-3.9639-4.497-6.7081-8.694-6.0983-3.898.3049-7.195 3.659-7.495 7.6228-4.197.6098-7.195 4.5737-6.896 8.8425.3 4.5737 4.497 7.9277 8.994 7.6228 3.298-.3049 5.996-2.7442 6.896-5.4884 1.499 2.7442 4.497 4.5736 7.794 4.2687 4.497-.3049 7.795-4.5737 7.495-9.1473-.299-4.5737-3.897-7.6228-8.094-7.6228Z" fill="#EFD27F"/>
    <path d="M164.112 68.34c3.298-.3049 5.996-2.7442 6.896-5.4884 1.499 2.7442 4.497 4.5736 7.794 4.2687 4.497-.3049 7.795-4.5737 7.495-9.1473-.299-4.2688-3.897-7.6229-8.394-7.6229" fill="#E2B544"/>
    <path d="M171.008 62.5467c1.499 2.7442 4.497 4.5736 7.794 4.2687 4.497-.3049 7.795-4.5737 7.495-9.1473-.299-4.2688-3.897-7.6228-8.394-7.6228-.899-3.9639-4.497-6.7081-8.694-6.0983" fill="#E2B544"/>
    <path d="M162.613 54.0091c.6.6098 0 1.8295-1.199 3.0491-1.199 1.2197-2.698 1.5246-3.298.9148-.599-.6099 0-1.8295 1.499-3.0492 1.2-1.2196 2.399-1.5245 2.998-.9147ZM168.609 45.7765c.6.6098 0 1.8294-1.199 2.7442-1.199.9147-2.398 1.2196-2.698.9147-.3-.6098 0-1.8295 1.199-2.7442 1.199-.9147 2.398-1.2196 2.698-.9147Z" fill="#FFF0B0"/>
  </g>
  <g class = "pop right">
    <path d="M199.488 28.7014c0-3.9639-2.997-7.3179-7.195-7.9277-3.897-.6099-7.794 2.1343-8.694 5.7933-4.197-.3049-8.094 2.7442-8.694 7.3179-.6 4.5737 2.698 8.8424 7.195 9.4523 3.298.3049 6.296-1.2197 8.095-3.9639.899 3.0491 3.597 5.4884 6.895 5.7933 4.497.6099 8.694-2.7442 9.294-7.3179 0-4.5736-2.698-8.5375-6.896-9.1473Z" fill="#EFD27F"/>
    <path d="M181.8 43.0323c3.298.3049 6.296-1.2197 8.095-3.9639.899 3.0491 3.598 5.4884 6.895 5.7933 4.497.6099 8.694-2.7442 9.294-7.3179.6-4.2687-2.398-8.2326-6.596-9.1473" fill="#E2B544"/>
    <path d="M189.895 39.0684c.899 3.0491 3.598 5.4884 6.895 5.7933 4.497.6099 8.694-2.7442 9.294-7.3179.6-4.2687-2.398-8.2326-6.596-9.1473 0-3.9639-2.998-7.3179-7.195-7.9277" fill="#E2B544"/>
    <path d="M183.299 28.7014c.3.6098-.599 1.8295-2.098 2.7442-1.499.9147-2.998.9147-3.298.3049-.3-.6098.6-1.8295 2.099-2.7442 1.499-.9147 2.998-.9147 3.297-.3049ZM191.094 22.2982c.3.6098-.3 1.5246-1.799 2.4393-1.199.6098-2.398.6098-2.698 0-.3-.6098.3-1.5246 1.799-2.4393 1.199-.6098 2.398-.6098 2.698 0Z" fill="#FFF0B0"/>
  </g>
  <g class = "pop left">
    <path d="M215.977 70.1694c0-3.9638-2.998-7.3179-7.195-7.9277-3.897-.6098-7.795 2.1344-8.694 5.7934-4.197-.305-8.094 2.7442-8.694 7.3179-.6 4.5736 2.698 8.8424 6.895 9.4522 3.298.3049 6.296-1.2196 8.095-3.9638.899 3.0491 3.597 5.4884 6.895 5.7933 4.497.6098 8.694-2.7442 9.294-7.013.3-4.8786-2.398-8.8424-6.596-9.4523Z" fill="#EFD27F"/>
    <path d="M198.289 84.5003c3.298.3049 6.296-1.2196 8.095-3.9638.899 3.0491 3.597 5.4884 6.895 5.7933 4.497.6098 8.694-2.7442 9.294-7.013.6-4.2688-2.398-8.2326-6.596-9.1474" fill="#E2B544"/>
    <path d="M206.384 80.5365c.899 3.0491 3.597 5.4884 6.895 5.7933 4.497.6098 8.694-2.7442 9.294-7.013.6-4.2687-2.398-8.2326-6.596-9.1473 0-3.9639-2.998-7.3179-7.195-7.9278" fill="#E2B544"/>
    <path d="M200.088 70.1694c.3.6099-.6 1.8295-2.099 2.7442-1.498.9148-2.997.9148-3.297.305-.3-.6099.599-1.8295 2.098-2.7442 1.199-.9148 2.698-.9148 3.298-.305ZM207.583 63.4614c.3.6098-.3 1.5245-1.799 2.4393-1.199.6098-2.398.9147-2.698.3049-.3-.6098.3-1.5246 1.799-2.4393 1.199-.6098 2.398-.9148 2.698-.3049Z" fill="#FFF0B0"/>
  </g>
  <g class = "pop right">
    <path d="M131.259 26.2528c0-3.9639-2.998-7.3179-7.195-7.9277-3.897-.6099-7.795 2.1344-8.694 5.7933-4.197-.3049-8.095 2.7442-8.694 7.3179-.6 4.5737 2.698 8.8425 7.195 9.4523 3.298.3049 6.296-1.2197 8.094-3.9639.9 3.0491 3.598 5.4884 6.896 5.7934 4.497.6098 8.694-2.7443 9.293-7.013 0-4.5737-2.698-8.5376-6.895-9.4523Z" fill="#EFD27F"/>
    <path d="M113.571 40.5837c3.298.3049 6.296-1.2197 8.095-3.9639.899 3.0491 3.597 5.4884 6.895 5.7934 4.497.6098 8.694-2.7443 9.294-7.013.599-4.2688-2.399-8.2327-6.596-9.1474" fill="#E2B544"/>
    <path d="M121.666 36.6198c.899 3.0491 3.597 5.4884 6.895 5.7934 4.497.6098 8.694-2.7443 9.294-7.013.599-4.2688-2.399-8.2327-6.596-9.1474 0-3.9639-2.998-7.3179-7.195-7.9277" fill="#E2B544"/>
    <path d="M115.07 26.5577c.3.6098-.6 1.8295-2.099 2.7442-1.499.9148-2.998.9148-3.297.3049-.3-.6098.599-1.8294 2.098-2.7442 1.499-.9147 2.998-1.2196 3.298-.3049ZM122.865 19.8496c.3.6099-.3 1.5246-1.799 2.4393-1.199.6099-2.398.9148-2.998.3049-.3-.6098.3-1.5245 1.799-2.4393 1.499-.9147 2.698-.9147 2.998-.3049Z" fill="#FFF0B0"/>
  </g>
</svg>
