<?xml version="1.0" encoding="iso-8859-1"?>
<!-- Generator: Adobe Illustrator 19.0.0, SVG Export Plug-In . SVG Version: 6.00 Build 0)  -->
<svg version="1.1" id="Layer_1" xmlns="http://www.w3.org/2000/svg" xmlns:xlink="http://www.w3.org/1999/xlink" x="0px" y="0px"
	 viewBox="0 0 512 512" style="enable-background:new 0 0 512 512;" xml:space="preserve">
<g>
	<g>
		<g>
			<polygon points="170.667,401.067 170.667,418.133 216.866,418.133 208.333,409.6 216.866,401.067 			"/>
			<rect y="93.867" width="34.133" height="17.067"/>
			<polygon points="170.667,93.867 170.667,110.933 216.866,110.933 208.333,102.4 216.866,93.867 			"/>
			<rect y="401.067" width="34.133" height="17.067"/>
			<rect x="85.333" y="93.867" width="34.133" height="17.067"/>
			<path d="M233.933,435.2h-71.799c-4.719,0-8.533-3.823-8.533-8.533v-34.133c0-4.71,3.814-8.533,8.533-8.533h71.799l19.567-19.567
				c3.337-3.337,3.337-8.73,0-12.066L208.333,307.2l45.167-45.167c3.337-3.337,3.337-8.73,0-12.066L208.333,204.8l45.167-45.167
				c3.337-3.337,3.337-8.73,0-12.066L233.933,128h-71.799c-4.719,0-8.533-3.823-8.533-8.533V85.333c0-4.71,3.814-8.533,8.533-8.533
				h71.799L253.5,57.233c2.441-2.44,3.174-6.11,1.852-9.301c-1.314-3.183-4.437-5.265-7.885-5.265H25.6
				c-14.114,0-25.6,11.486-25.6,25.6V76.8h42.667c4.719,0,8.533,3.823,8.533,8.533v34.133c0,4.71-3.814,8.533-8.533,8.533H0v256
				h42.667c4.719,0,8.533,3.823,8.533,8.533v34.133c0,4.71-3.814,8.533-8.533,8.533H0v8.533c0,14.114,11.486,25.6,25.6,25.6h221.867
				c3.447,0,6.571-2.082,7.885-5.265c1.323-3.191,0.589-6.861-1.852-9.301L233.933,435.2z M136.533,426.667
				c0,4.71-3.814,8.533-8.533,8.533H76.8c-4.719,0-8.533-3.823-8.533-8.533v-34.133c0-4.71,3.814-8.533,8.533-8.533H128
				c4.719,0,8.533,3.823,8.533,8.533V426.667z M136.533,119.467c0,4.71-3.814,8.533-8.533,8.533H76.8
				c-4.719,0-8.533-3.823-8.533-8.533V85.333c0-4.71,3.814-8.533,8.533-8.533H128c4.719,0,8.533,3.823,8.533,8.533V119.467z"/>
			<rect x="85.333" y="401.067" width="34.133" height="17.067"/>
			<rect x="477.867" y="401.067" width="34.133" height="17.067"/>
			<rect x="307.2" y="93.867" width="34.133" height="17.067"/>
			<rect x="392.533" y="401.067" width="34.133" height="17.067"/>
			<path d="M486.4,42.667H298.667c-2.27,0-4.437,0.896-6.033,2.5l-51.2,51.2c-3.336,3.336-3.336,8.73,0,12.066l45.167,45.167
				l-45.167,45.167c-3.336,3.337-3.336,8.73,0,12.066L286.601,256l-45.167,45.167c-3.336,3.337-3.336,8.73,0,12.066l45.167,45.167
				l-45.167,45.167c-3.336,3.336-3.336,8.73,0,12.066l51.2,51.2c1.596,1.604,3.763,2.5,6.033,2.5H486.4
				c14.114,0,25.6-11.486,25.6-25.6V435.2h-42.667c-4.719,0-8.533-3.823-8.533-8.533v-34.133c0-4.71,3.814-8.533,8.533-8.533H512
				V128h-42.667c-4.719,0-8.533-3.823-8.533-8.533V85.333c0-4.71,3.814-8.533,8.533-8.533H512v-8.533
				C512,54.153,500.514,42.667,486.4,42.667z M358.4,426.667c0,4.71-3.814,8.533-8.533,8.533h-51.2
				c-4.719,0-8.533-3.823-8.533-8.533v-34.133c0-4.71,3.814-8.533,8.533-8.533h51.2c4.719,0,8.533,3.823,8.533,8.533V426.667z
				 M358.4,119.467c0,4.71-3.814,8.533-8.533,8.533h-51.2c-4.719,0-8.533-3.823-8.533-8.533V85.333c0-4.71,3.814-8.533,8.533-8.533
				h51.2c4.719,0,8.533,3.823,8.533,8.533V119.467z M443.733,426.667c0,4.71-3.814,8.533-8.533,8.533H384
				c-4.719,0-8.533-3.823-8.533-8.533v-34.133c0-4.71,3.814-8.533,8.533-8.533h51.2c4.719,0,8.533,3.823,8.533,8.533V426.667z
				 M443.733,119.467c0,4.71-3.814,8.533-8.533,8.533H384c-4.719,0-8.533-3.823-8.533-8.533V85.333c0-4.71,3.814-8.533,8.533-8.533
				h51.2c4.719,0,8.533,3.823,8.533,8.533V119.467z"/>
			<rect x="477.867" y="93.867" width="34.133" height="17.067"/>
			<rect x="392.533" y="93.867" width="34.133" height="17.067"/>
			<rect x="307.2" y="401.067" width="34.133" height="17.067"/>
		</g>
	</g>
</g>
<g>
</g>
<g>
</g>
<g>
</g>
<g>
</g>
<g>
</g>
<g>
</g>
<g>
</g>
<g>
</g>
<g>
</g>
<g>
</g>
<g>
</g>
<g>
</g>
<g>
</g>
<g>
</g>
<g>
</g>
</svg>
